<?xml version="1.0" encoding="utf-8"?>
<!-- Generator: Adobe Illustrator 17.1.0, SVG Export Plug-In . SVG Version: 6.00 Build 0)  -->
<!DOCTYPE svg PUBLIC "-//W3C//DTD SVG 1.1//EN" "http://www.w3.org/Graphics/SVG/1.1/DTD/svg11.dtd">
<svg version="1.1" id="Layer_1" xmlns="http://www.w3.org/2000/svg" xmlns:xlink="http://www.w3.org/1999/xlink" x="0px" y="0px"
	 viewBox="263.636 156.325 432.727 360.199" enable-background="new 263.636 156.325 432.727 360.199" xml:space="preserve">
<g>
	<path fill="#FFFFFF" d="M554.058,460.738L476.52,282.275L398.98,460.738L266.467,156.325h52.513l80.001,186.669l51.692-120.206
		l25.846-60.718l25.846,59.897l51.692,121.026l80.001-186.669h52.103L554.058,460.738z"/>
</g>
<g>
	<path fill="#FFFFFF" d="M312.955,516.524l-13.296-30.603l-13.296,30.603l-22.725-52.203h9.005l13.719,32.011l8.865-20.613
		l4.432-10.412l4.432,10.271l8.865,20.755l13.72-32.011h8.935L312.955,516.524z"/>
	<path fill="#FFFFFF" d="M337.998,516.524v-52.203h8.16v52.203H337.998z"/>
	<path fill="#FFFFFF" d="M390.056,471.638h-14.351v44.886h-8.231v-44.886h-14.351v-7.317h36.936v7.317H390.056z"/>
	<path fill="#FFFFFF" d="M409.402,514.482c-3.166-1.336-5.909-3.236-8.302-5.628c-2.393-2.393-4.291-5.136-5.628-8.302
		c-1.337-3.167-2.04-6.613-2.04-10.131c0-3.517,0.702-6.964,2.04-10.2c1.337-3.095,3.236-5.84,5.628-8.231
		c2.391-2.463,5.135-4.291,8.302-5.628c3.167-1.337,6.615-2.041,10.131-2.041c3.94,0,7.809,0.845,11.326,2.533l-3.587,7.387
		c-2.393-1.126-4.995-1.759-7.739-1.759c-4.783,0-9.286,1.9-12.663,5.277c-3.378,3.377-5.277,7.88-5.277,12.663
		c0,4.785,1.898,9.287,5.277,12.663c3.377,3.377,7.88,5.277,12.663,5.277c2.814,0,5.488-0.634,7.949-1.898
		c0.704-0.282,1.337-0.704,1.898-1.055l4.573,6.825c-0.914,0.563-1.83,1.126-2.814,1.548c-3.587,1.83-7.527,2.743-11.607,2.743
		C416.016,516.524,412.567,515.82,409.402,514.482z"/>
	<path fill="#FFFFFF" d="M478.556,464.321v52.203h-8.16V494.01H449.57v22.514h-8.16v-52.203h8.16v22.302h20.825v-22.302H478.556z"/>
	<path fill="#FFFFFF" d="M502.124,514.482c-3.166-1.336-5.909-3.236-8.303-5.628c-2.391-2.393-4.29-5.136-5.627-8.302
		c-1.337-3.167-2.041-6.613-2.041-10.131c0-3.517,0.704-6.964,2.041-10.2c1.337-3.095,3.236-5.84,5.627-8.231
		c2.393-2.463,5.136-4.291,8.303-5.628c3.167-1.337,6.613-2.041,10.131-2.041c3.938,0,7.809,0.845,11.326,2.533l-3.587,7.387
		c-2.393-1.126-4.995-1.759-7.739-1.759c-4.783,0-9.286,1.9-12.664,5.277c-3.377,3.377-5.275,7.88-5.275,12.663
		c0,4.785,1.898,9.287,5.275,12.663c3.378,3.377,7.881,5.277,12.664,5.277c2.814,0,5.488-0.634,7.949-1.898
		c0.704-0.282,1.337-0.704,1.898-1.055l4.573,6.825c-0.914,0.563-1.83,1.126-2.814,1.548c-3.587,1.83-7.527,2.743-11.607,2.743
		C508.737,516.524,505.29,515.82,502.124,514.482z"/>
	<path fill="#FFFFFF" d="M570.646,516.524h-9.215l-13.157-17.66h-5.98v17.66h-8.16v-52.203h6.894h8.584
		c6.895,0,10.904,2.814,13.016,5.207c2.743,3.026,4.222,7.246,4.222,12.102c0,4.783-1.477,9.005-4.222,12.03
		c-1.267,1.406-3.236,3.026-6.05,4.01L570.646,516.524z M549.61,491.548c3.377,0,5.909-0.986,7.527-2.814
		c1.969-2.111,2.322-5.065,2.322-7.105c0-2.111-0.353-5.065-2.322-7.176c-1.618-1.83-4.151-2.743-7.527-2.743h-7.317v19.84h7.317
		V491.548z"/>
	<path fill="#FFFFFF" d="M617.922,516.524h-8.935l-4.783-11.187h-17.87l-4.783,11.187h-9.005l22.722-52.203L617.922,516.524z
		 M601.036,498.021l-5.77-13.579l-5.77,13.579H601.036z"/>
	<path fill="#FFFFFF" d="M632.06,485.567h19.066v7.387H632.06v23.569h-8.16v-52.203h8.09h23.288v7.317H632.06V485.567
		L632.06,485.567z"/>
	<path fill="#FFFFFF" d="M696.364,471.638h-14.353v44.886h-8.232v-44.886h-14.352v-7.317h36.936v7.317H696.364z"/>
</g>
<line fill="none" stroke="#FFFFFF" stroke-width="3" stroke-miterlimit="10" x1="263.636" y1="459.368" x2="696.364" y2="459.368"/>
</svg>
