<?xml version="1.0" encoding="utf-8"?>
<!-- Generator: Adobe Illustrator 17.1.0, SVG Export Plug-In . SVG Version: 6.00 Build 0)  -->
<!DOCTYPE svg PUBLIC "-//W3C//DTD SVG 1.1//EN" "http://www.w3.org/Graphics/SVG/1.1/DTD/svg11.dtd">
<svg version="1.1" id="Layer_1" xmlns="http://www.w3.org/2000/svg" xmlns:xlink="http://www.w3.org/1999/xlink" x="0px" y="0px"
	 viewBox="282.9 -6.6 639.3 572.1" enable-background="new 282.9 -6.6 639.3 572.1" xml:space="preserve">
<g>
	<path fill="#FFFFFF" stroke="#FFFFFF" stroke-width="0.9765" stroke-miterlimit="10" d="M720.9,456l-117.7-271L485.5,456L284.4-6.1
		H364l121.5,283.4L564,94.7l39.3-92.2l39.3,90.9L721,277.2L842.4-6.1h79.1L720.9,456z"/>
</g>
<g>
	<path fill="#FFFFFF" stroke="#FFFFFF" stroke-width="0.9471" stroke-miterlimit="10" d="M356.2,564.3l-19.6-45.1l-19.5,45.1
		l-33.4-76.9h13.3l20.2,47.2l13.1-30.3l6.5-15.3l6.5,15.2l13.1,30.6l20.2-47.2h13.2L356.2,564.3z"/>
	<path fill="#FFFFFF" stroke="#FFFFFF" stroke-width="0.9471" stroke-miterlimit="10" d="M393,564.3v-76.9h12v76.9H393z"/>
	<path fill="#FFFFFF" stroke="#FFFFFF" stroke-width="0.9471" stroke-miterlimit="10" d="M469.7,498.2h-21.1v66.1h-12.1v-66.1h-21.1
		v-10.8h54.4L469.7,498.2L469.7,498.2z"/>
	<path fill="#FFFFFF" stroke="#FFFFFF" stroke-width="0.9471" stroke-miterlimit="10" d="M498.2,561.3c-4.6-2-8.7-4.7-12.2-8.2
		c-3.5-3.5-6.3-7.6-8.2-12.2c-2-4.6-3-9.8-3-15s1-10.2,3-15.1c2-4.5,4.7-8.6,8.2-12.1c3.5-3.6,7.6-6.3,12.2-8.2c4.6-2,9.8-3,15-3
		c5.8,0,11.5,1.2,16.7,3.7l-5.3,10.9c-3.5-1.7-7.4-2.6-11.4-2.6c-7,0-13.6,2.8-18.7,7.8c-5,5-7.8,11.6-7.8,18.7s2.8,13.6,7.8,18.7
		c5,5,11.6,7.8,18.7,7.8c4.2,0,8.1-0.9,11.7-2.8c1-0.4,2-1,2.8-1.5l6.7,10c-1.3,0.9-2.7,1.7-4.2,2.3c-5.3,2.7-11.1,4.1-17,4.1
		C507.9,564.3,502.9,563.2,498.2,561.3z"/>
	<path fill="#FFFFFF" stroke="#FFFFFF" stroke-width="0.9471" stroke-miterlimit="10" d="M600.1,487.4v76.9h-12v-33.1h-30.7v33.1
		h-12v-76.9h12v32.9H588v-32.9H600.1L600.1,487.4z"/>
	<path fill="#FFFFFF" stroke="#FFFFFF" stroke-width="0.9471" stroke-miterlimit="10" d="M634.7,561.3c-4.6-2-8.7-4.7-12.2-8.2
		s-6.3-7.6-8.2-12.2c-2-4.6-3-9.8-3-15s1-10.2,3-15.1c2-4.5,4.7-8.6,8.2-12.1c3.5-3.6,7.6-6.3,12.2-8.2c4.6-2,9.8-3,15-3
		c5.8,0,11.5,1.2,16.7,3.7l-5.3,10.9c-3.5-1.7-7.4-2.6-11.4-2.6c-7,0-13.6,2.8-18.7,7.8c-5,5-7.8,11.6-7.8,18.7s2.8,13.6,7.8,18.7
		c5,5,11.6,7.8,18.7,7.8c4.2,0,8.1-0.9,11.7-2.8c1-0.4,2-1,2.8-1.5l6.7,10c-1.3,0.9-2.7,1.7-4.2,2.3c-5.3,2.7-11.1,4.1-17,4.1
		C644.5,564.3,639.4,563.2,634.7,561.3z"/>
	<path fill="#FFFFFF" stroke="#FFFFFF" stroke-width="0.9471" stroke-miterlimit="10" d="M735.6,564.3h-13.5l-19.4-26h-8.8v26h-12
		v-76.9h10.1h12.6c10.1,0,16.1,4.2,19.1,7.7c4.1,4.5,6.3,10.7,6.3,17.8c0,7-2.2,13.3-6.3,17.7c-1.9,2.1-4.7,4.5-8.9,5.9L735.6,564.3
		z M704.6,527.5c5,0,8.7-1.4,11.1-4.2c2.9-3.1,3.4-7.5,3.4-10.4c0-3.1-0.5-7.5-3.4-10.6c-2.4-2.7-6.2-4.1-11.1-4.1h-10.8v29.2
		L704.6,527.5L704.6,527.5z"/>
	<path fill="#FFFFFF" stroke="#FFFFFF" stroke-width="0.9471" stroke-miterlimit="10" d="M805.2,564.3H792l-7-16.5h-26.3l-7,16.5
		h-13.3l33.4-76.9L805.2,564.3z M780.4,537l-8.5-20l-8.5,20H780.4z"/>
	<path fill="#FFFFFF" stroke="#FFFFFF" stroke-width="0.9471" stroke-miterlimit="10" d="M826,518.7h28v10.9h-28v34.7h-12v-76.9H826
		h34.3v10.8H826V518.7L826,518.7z"/>
	<path fill="#FFFFFF" stroke="#FFFFFF" stroke-width="0.9471" stroke-miterlimit="10" d="M920.8,498.2h-21.1v66.1h-12.1v-66.1h-21.1
		v-10.8h54.4V498.2L920.8,498.2z"/>
</g>
<line fill="none" stroke="#FFFFFF" stroke-width="13.0309" stroke-miterlimit="10" x1="283.2" y1="468.5" x2="921.5" y2="468.5"/>
</svg>
